<svg width="842" height="268" xmlns="http://www.w3.org/2000/svg" xmlns:xlink="http://www.w3.org/1999/xlink" overflow="hidden"><defs><clipPath id="clip0"><path d="M274 170 1116 170 1116 438 274 438Z" fill-rule="evenodd" clip-rule="evenodd"/></clipPath><clipPath id="clip1"><path d="M560 221 1115 221 1115 387 560 387Z" fill-rule="evenodd" clip-rule="evenodd"/></clipPath><clipPath id="clip2"><path d="M560 221 1115 221 1115 387 560 387Z" fill-rule="evenodd" clip-rule="evenodd"/></clipPath><clipPath id="clip3"><path d="M560 221 1115 221 1115 387 560 387Z" fill-rule="evenodd" clip-rule="evenodd"/></clipPath><clipPath id="clip4"><path d="M275 170 496 170 496 437 275 437Z" fill-rule="evenodd" clip-rule="evenodd"/></clipPath><clipPath id="clip5"><path d="M275 170 496 170 496 437 275 437Z" fill-rule="evenodd" clip-rule="evenodd"/></clipPath><clipPath id="clip6"><path d="M275 170 496 170 496 437 275 437Z" fill-rule="evenodd" clip-rule="evenodd"/></clipPath></defs><g clip-path="url(#clip0)" transform="translate(-274 -170)"><g clip-path="url(#clip1)"><g clip-path="url(#clip2)"><g clip-path="url(#clip3)"><path d="M137.3 0 137.3 165.809 115.049 165.809 115.049 0Z" fill="#FFFFFF" transform="matrix(1 0 -0 1.00115 560.622 221)"/><path d="M166.246 50.2766 188.589 50.2766 188.589 165.809 166.246 165.809Z" fill="#FFFFFF" transform="matrix(1 0 -0 1.00115 560.622 221)"/><path d="M326.74 0 326.74 165.809 304.375 165.809 304.375 147.631C295.554 159.382 281.603 166.152 266.914 165.809 234.31 165.809 211.024 139.946 211.024 108.054 211.024 76.1627 234.31 50.2996 266.914 50.2996 281.53 50.0037 295.395 56.7605 304.167 68.4544L304.167 0ZM304.375 108.146C304.375 88.6015 288.53 72.7572 268.985 72.7572 249.44 72.7572 233.596 88.6015 233.596 108.146 233.596 127.691 249.44 143.536 268.985 143.536 288.48 143.46 304.247 127.641 304.259 108.146Z" fill="#FFFFFF" transform="matrix(1 0 -0 1.00115 560.622 221)"/><path d="M464.339 108.146C464.339 140.043 438.481 165.901 406.584 165.901 374.687 165.901 348.83 140.043 348.83 108.146 348.83 76.2493 374.687 50.3916 406.584 50.3916 438.481 50.3916 464.339 76.2493 464.339 108.146ZM441.997 108.146C442.009 88.5888 426.165 72.7239 406.607 72.7112 387.05 72.6985 371.185 88.5428 371.172 108.1 371.159 127.658 387.004 143.523 406.561 143.536L406.561 143.536C426.051 143.386 441.821 127.636 441.997 108.146Z" fill="#FFFFFF" transform="matrix(1 0 -0 1.00115 560.622 221)"/><path d="M553.756 50.2996 553.756 74.7361C546.989 72.9951 539.855 73.3237 533.277 75.6795 518.596 81.2709 509.047 93.6041 509.047 114.106L509.047 165.809 486.682 165.809 486.682 50.2305 509.047 50.2305 509.047 76.1397C516.733 60.0788 532.794 50.2996 553.756 50.2996Z" fill="#FFFFFF" transform="matrix(1 0 -0 1.00115 560.622 221)"/><path d="M55.5918 98.5053C29.9128 92.0395 25.1038 89.0022 25.1038 81.9381 25.1038 73.6546 33.7785 68.4083 46.5029 68.8225 59.8257 69.4208 68.7075 75.7255 70.3412 86.172L92.0395 86.172C92.1107 83.6984 91.8318 81.2273 91.2111 78.8318L91.2111 78.8318C87.0233 61.4364 69.927 50.2305 46.2268 50.2305 20.916 50.2305 3.84265 63.1621 3.84265 82.9506 3.91168 98.9424 13.3917 106.766 41.4178 114.244 67.0508 121.147 70.6863 123.448 70.6863 131.616 70.6863 140.82 62.8169 146.757 49.4942 146.757 34.952 146.757 24.6436 139.693 22.0435 128.349L0 128.349C0.0901041 130.528 0.461336 132.685 1.10447 134.769 1.47027 136.33 1.93134 137.866 2.48507 139.371L2.48507 139.371C8.6287 155.938 24.9887 165.349 48.1136 165.349 75.7255 165.349 92.5457 152.233 92.5457 130.834 92.5457 113.853 83.0656 105.569 55.5918 98.5053Z" fill="#FFFFFF" transform="matrix(1 0 -0 1.00115 560.622 221)"/></g></g></g><g clip-path="url(#clip4)"><g clip-path="url(#clip5)"><g clip-path="url(#clip6)"><path d="M207.247 149.273 118.251 82.8498C113.583 79.363 107.177 79.363 102.508 82.8498L62.1037 113.024C55.0038 118.328 45.26 118.328 38.1601 113.024L27.2308 104.883C19.3793 99.0287 17.7601 87.918 23.6142 80.0665 24.6387 78.6925 25.8569 77.4743 27.2308 76.4499L97.63 23.9436C105.192 18.2968 115.568 18.2968 123.13 23.9436L193.544 76.4599C201.396 82.314 203.015 93.4247 197.161 101.276 196.136 102.65 194.918 103.868 193.544 104.893 193.544 104.893 208.823 116.436 208.788 116.421 223.004 104.467 224.838 83.2525 212.885 69.0364 211.221 67.0572 209.334 65.2766 207.262 63.7298L131.091 6.86383C118.811-2.29975 101.968-2.29975 89.6887 6.86383L13.5182 63.7298C-4.48942 77.1682-4.48942 104.175 13.5132 117.623L102.508 184.066C107.179 187.548 113.581 187.548 118.251 184.066L158.681 153.887C165.783 148.588 175.523 148.588 182.625 153.887L193.544 162.008C201.396 167.867 203.011 178.981 197.152 186.833 196.13 188.203 194.914 189.419 193.544 190.441L123.13 242.978C115.568 248.624 105.192 248.624 97.63 242.978L27.2308 190.436C19.3793 184.578 17.7638 173.463 23.6226 165.612 24.6451 164.241 25.8605 163.026 27.2308 162.003L12.0017 150.465C-4.48942 164.263-3.9906 190.112 13.5132 203.171L89.6837 260.037C101.962 269.206 118.808 269.206 131.086 260.037L207.257 203.171C225.264 189.723 225.264 162.722 207.247 149.273ZM106.449 164.009 65.5007 133.446 106.449 102.883C108.781 101.142 111.979 101.142 114.311 102.883L155.259 133.446 114.311 164.009C111.979 165.75 108.781 165.75 106.449 164.009Z" fill="#FF4835" transform="matrix(1 0 -0 1.00039 275.12 170)"/></g></g></g></g></svg>