<svg id="logo-dribbble" xmlns="http://www.w3.org/2000/svg" width="16" height="16" viewBox="0 0 16 16">
  <circle id="Ellipse_2" data-name="Ellipse 2" cx="7.333" cy="7.333" r="7.333" transform="translate(0.667 0.667)" fill="#ec4989"/>
  <path id="Path_166" data-name="Path 166" d="M8,16a8,8,0,1,1,8-8A8.009,8.009,0,0,1,8,16Zm6.747-6.9A10.029,10.029,0,0,0,10.49,8.8a29.49,29.49,0,0,1,1.327,4.872A6.845,6.845,0,0,0,14.747,9.1ZM10.669,14.3A28.406,28.406,0,0,0,9.211,9.119l-.045.015A9.368,9.368,0,0,0,3.806,13.4a6.824,6.824,0,0,0,6.863.9ZM2.923,12.579A10.842,10.842,0,0,1,8.478,8.07q.134-.043.269-.081c-.172-.388-.358-.777-.554-1.16A25.206,25.206,0,0,1,1.17,7.8c0,.069,0,.139,0,.209A6.806,6.806,0,0,0,2.923,12.579ZM1.311,6.611a25.488,25.488,0,0,0,6.317-.833A43.6,43.6,0,0,0,5.095,1.826,6.858,6.858,0,0,0,1.311,6.611ZM6.4,1.367a36.472,36.472,0,0,1,2.55,4A7.715,7.715,0,0,0,12.53,2.9,6.825,6.825,0,0,0,6.4,1.367Zm6.891,2.322A9.1,9.1,0,0,1,9.474,6.384c.159.325.311.657.453.99q.075.177.147.353a15.97,15.97,0,0,1,4.758.22A6.8,6.8,0,0,0,13.289,3.689Z" fill="#c51e60" fill-rule="evenodd"/>
</svg>
