<svg id="logo-instagram" xmlns="http://www.w3.org/2000/svg" width="16" height="16" viewBox="0 0 16 16">
  <path id="Path_163" data-name="Path 163" d="M8,0C5.827,0,5.555.009,4.7.048A4.781,4.781,0,0,0,1.343,1.343,4.78,4.78,0,0,0,.048,4.7C.009,5.555,0,5.827,0,8s.009,2.445.048,3.3a4.781,4.781,0,0,0,1.295,3.359A4.78,4.78,0,0,0,4.7,15.952C5.555,15.991,5.827,16,8,16s2.445-.009,3.3-.048a4.781,4.781,0,0,0,3.359-1.295A4.78,4.78,0,0,0,15.952,11.3c.039-.853.048-1.126.048-3.3s-.009-2.445-.048-3.3a4.781,4.781,0,0,0-1.295-3.359A4.78,4.78,0,0,0,11.3.048C10.445.009,10.173,0,8,0Z" transform="translate(0 0)" fill="#e02d69"/>
  <path id="Path_164" data-name="Path 164" d="M13.333,8.961c1.424,0,1.593.005,2.155.031a2.285,2.285,0,0,1,1.6.583,2.285,2.285,0,0,1,.583,1.6c.026.562.031.731.031,2.155s-.005,1.593-.031,2.155a2.285,2.285,0,0,1-.583,1.6,2.285,2.285,0,0,1-1.6.583c-.562.026-.731.031-2.155.031s-1.593-.005-2.155-.031a2.285,2.285,0,0,1-1.6-.583,2.285,2.285,0,0,1-.583-1.6c-.026-.562-.031-.731-.031-2.155s.005-1.593.031-2.155a2.285,2.285,0,0,1,.583-1.6,2.285,2.285,0,0,1,1.6-.583c.562-.026.731-.031,2.155-.031m0-.961c-1.448,0-1.63.006-2.2.032A3.189,3.189,0,0,0,8.9,8.9a3.188,3.188,0,0,0-.863,2.239c-.026.569-.032.751-.032,2.2s.006,1.63.032,2.2A3.189,3.189,0,0,0,8.9,17.772a3.188,3.188,0,0,0,2.239.863c.569.026.751.032,2.2.032s1.63-.006,2.2-.032a2.959,2.959,0,0,0,3.1-3.1c.026-.569.032-.751.032-2.2s-.006-1.63-.032-2.2A3.189,3.189,0,0,0,17.772,8.9a3.188,3.188,0,0,0-2.239-.863c-.569-.026-.751-.032-2.2-.032Z" transform="translate(-5.333 -5.333)" fill="#fff"/>
  <path id="Path_165" data-name="Path 165" d="M18.523,15.784a2.739,2.739,0,1,0,2.739,2.739A2.739,2.739,0,0,0,18.523,15.784Zm0,4.516A1.778,1.778,0,1,1,20.3,18.523,1.778,1.778,0,0,1,18.523,20.3Z" transform="translate(-10.523 -10.523)" fill="#fff"/>
  <circle id="Ellipse_1" data-name="Ellipse 1" cx="0.64" cy="0.64" r="0.64" transform="translate(10.207 4.513)" fill="#fff"/>
</svg>
