<svg xmlns="http://www.w3.org/2000/svg" width="16" height="16" viewBox="0 0 16 16">
  <g id="logo-linkedin" transform="translate(-0.001)">
    <path id="Path_160" data-name="Path 160" d="M14.817,0H1.181A1.168,1.168,0,0,0,0,1.154V14.846A1.168,1.168,0,0,0,1.181,16H14.817A1.171,1.171,0,0,0,16,14.846V1.154A1.17,1.17,0,0,0,14.817,0Z" transform="translate(0)" fill="#007bb5"/>
    <path id="Path_161" data-name="Path 161" d="M6.736,10.4H9.111v7.636H6.736Zm1.188-3.8A1.376,1.376,0,1,1,6.548,7.984,1.376,1.376,0,0,1,7.924,6.608" transform="translate(-4.364 -4.405)" fill="#fff"/>
    <path id="Path_162" data-name="Path 162" d="M18.705,17.616H20.98V18.66h.033a2.493,2.493,0,0,1,2.245-1.233c2.4,0,2.847,1.581,2.847,3.637v4.188H23.732V21.538c0-.885-.015-2.025-1.233-2.025-1.235,0-1.423.965-1.423,1.961v3.777h-2.37Z" transform="translate(-12.469 -11.617)" fill="#fff"/>
  </g>
</svg>
