<svg xmlns="http://www.w3.org/2000/svg" viewBox="0 0 442.56 535.05"><defs><style>.cls-1{fill:#ff4835;}</style></defs><title>Fichier 1logo</title><g id="Calque_2" data-name="Calque 2"><g id="Calque_1-2" data-name="Calque 1"><path class="cls-1" d="M415.47,299.25,237.06,166.09a26.37,26.37,0,0,0-31.56,0l-81,60.49a40.1,40.1,0,0,1-48,0L54.59,210.26a35.55,35.55,0,0,1,0-57L195.72,48a42.72,42.72,0,0,1,51.12,0L388,153.28a35.55,35.55,0,0,1,0,57s30.63,23.14,30.56,23.11a67.42,67.42,0,0,0-3.06-105.63l-152.7-114a69.39,69.39,0,0,0-83,0l-152.7,114C-9,154.7-9,208.84,27.09,235.8L205.5,369a26.4,26.4,0,0,0,31.56,0l81.05-60.5a40.13,40.13,0,0,1,48,0L388,324.78a35.56,35.56,0,0,1,0,57L246.84,487.1a42.72,42.72,0,0,1-51.12,0L54.59,381.77a35.56,35.56,0,0,1,0-57L24.06,301.64C-9,329.3-8,381.12,27.09,407.3l152.7,114a69.36,69.36,0,0,0,83,0l152.7-114C451.59,380.34,451.59,326.21,415.47,299.25ZM213.4,328.79l-82.09-61.27,82.09-61.27a13.17,13.17,0,0,1,15.76,0l82.09,61.27-82.09,61.27A13.17,13.17,0,0,1,213.4,328.79Z"/></g></g></svg>