<svg viewBox="0 0 240.66 72.06" xmlns="http://www.w3.org/2000/svg" xmlns:xlink="http://www.w3.org/1999/xlink" overflow="hidden"><defs></defs><g id="Calque_2"><g id="Calque_1-2"><path d="M59.67 0 59.67 72.06 50 72.06 50 0Z" fill="#FFFFFF"/><rect x="72.25" y="21.85" width="9.71" height="50.21" fill="#FFFFFF"/><path d="M142 0 142 72.06 132.28 72.06 132.28 64.16C128.447 69.2667 122.384 72.2088 116 72.06 101.83 72.06 91.71 60.82 91.71 46.96 91.71 33.1 101.83 21.86 116 21.86 122.352 21.7314 128.377 24.6679 132.19 29.75L132.19 0ZM132.28 47C132.28 38.5059 125.394 31.62 116.9 31.62 108.406 31.62 101.52 38.5059 101.52 47 101.52 55.4941 108.406 62.38 116.9 62.38 125.372 62.347 132.225 55.4724 132.23 47Z" fill="#FFFFFF"/><path d="M201.8 47C201.8 60.8623 190.562 72.1 176.7 72.1 162.838 72.1 151.6 60.8623 151.6 47 151.6 33.1377 162.838 21.9 176.7 21.9 190.562 21.9 201.8 33.1377 201.8 47ZM192.09 47C192.096 38.5003 185.21 31.6055 176.71 31.6 168.21 31.5945 161.316 38.4803 161.31 46.98 161.304 55.4797 168.19 62.3745 176.69 62.38L176.69 62.38C185.16 62.3148 192.014 55.4702 192.09 47Z" fill="#FFFFFF"/><path d="M240.66 21.86 240.66 32.48C237.719 31.7234 234.619 31.8662 231.76 32.89 225.38 35.32 221.23 40.68 221.23 49.59L221.23 72.06 211.51 72.06 211.51 21.83 221.23 21.83 221.23 33.09C224.57 26.11 231.55 21.86 240.66 21.86Z" fill="#FFFFFF"/><path d="M24.16 42.81C13 40 10.91 38.68 10.91 35.61 10.91 32.01 14.68 29.73 20.21 29.91 26 30.17 29.86 32.91 30.57 37.45L40 37.45C40.0309 36.375 39.9097 35.3011 39.64 34.26L39.64 34.26C37.82 26.7 30.39 21.83 20.09 21.83 9.09 21.83 1.67 27.45 1.67 36.05 1.7 43 5.82 46.4 18 49.65 29.14 52.65 30.72 53.65 30.72 57.2 30.72 61.2 27.3 63.78 21.51 63.78 15.19 63.78 10.71 60.71 9.58 55.78L0 55.78C0.0391589 56.7268 0.200495 57.6646 0.48 58.57 0.638976 59.2483 0.839351 59.9162 1.08 60.57L1.08 60.57C3.75 67.77 10.86 71.86 20.91 71.86 32.91 71.86 40.22 66.16 40.22 56.86 40.22 49.48 36.1 45.88 24.16 42.81Z" fill="#FFFFFF"/></g></g></svg>