<svg xmlns="http://www.w3.org/2000/svg" width="16" height="12" viewBox="0 0 16 12">
  <g id="uk" transform="translate(0 -6)">
    <path id="Path_153" data-name="Path 153" d="M15.333,6H.667A.667.667,0,0,0,0,6.667V17.333A.667.667,0,0,0,.667,18H15.333A.667.667,0,0,0,16,17.333V6.667A.667.667,0,0,0,15.333,6Z" transform="translate(0 0)" fill="#002781"/>
    <path id="Path_154" data-name="Path 154" d="M16,6.667A.667.667,0,0,0,15.333,6h-1.72L9.333,9.292V6H6.667V9.292L2.387,6H.667A.667.667,0,0,0,0,6.667v.862l4.08,3.138H0v2.667H4.08L0,16.472v.862A.667.667,0,0,0,.667,18h1.72l4.28-3.292V18H9.333V14.708L13.613,18h1.72A.667.667,0,0,0,16,17.333v-.862l-4.08-3.138H16V10.667H11.92L16,7.529Z" transform="translate(0 0)" fill="#e6e6e6"/>
    <path id="Path_155" data-name="Path 155" d="M16,11.333H8.667V6H7.333v5.333H0v1.333H7.333V18H8.667V12.667H16Z" transform="translate(0 0)" fill="#d10d24"/>
    <path id="Path_156" data-name="Path 156" d="M7.721,27.723,1.582,32.467a.684.684,0,0,0,.139.015h.8l5.2-4.022Z" transform="translate(-1.055 -14.482)" fill="#d10d24"/>
    <path id="Path_157" data-name="Path 157" d="M28,10.759l6.139-4.744A.686.686,0,0,0,34,6h-.8L28,10.022Z" transform="translate(-18.667)" fill="#d10d24"/>
    <path id="Path_158" data-name="Path 158" d="M6,11.041.2,6.562a.663.663,0,0,0-.2.479v.1l5.048,3.9Z" transform="translate(0 -0.375)" fill="#d10d24"/>
    <path id="Path_159" data-name="Path 159" d="M29.994,28l5.8,4.479A.663.663,0,0,0,36,32v-.1L30.948,28Z" transform="translate(-19.996 -14.667)" fill="#d10d24"/>
  </g>
</svg>
